<?xml version="1.0" encoding="utf-8"?>
<!-- Generator: Adobe Illustrator 22.1.0, SVG Export Plug-In . SVG Version: 6.00 Build 0)  -->
<svg version="1.1" id="Layer_1" xmlns="http://www.w3.org/2000/svg" xmlns:xlink="http://www.w3.org/1999/xlink" x="0px" y="0px"
	 viewBox="0 0 153 152.999" style="enable-background:new 0 0 153 152.999;" xml:space="preserve">
<style type="text/css">
	.st0{fill:#FFFFFF;}
</style>
<g>
	<polygon class="st0" points="102,51 102,34 68,34 68,51 85,51 85,67.999 102,67.999 102,84.999 119,84.999 119,51 	"/>
	<rect x="102" y="101.999" class="st0" width="17" height="17"/>
	<rect x="85" y="84.999" class="st0" width="17" height="17"/>
	<polygon class="st0" points="85,84.999 85,67.999 68,67.999 68,51 51,51 51,34 34,34 34,67.999 51,67.999 51,84.999 34,84.999 
		34,118.999 51,118.999 51,101.999 68,101.999 68,84.999 	"/>
	<rect x="68" y="101.999" class="st0" width="17" height="17"/>
</g>
</svg>
